<?xml version="1.0" standalone="no"?>
<!DOCTYPE svg PUBLIC "-//W3C//DTD SVG 20010904//EN"
 "http://www.w3.org/TR/2001/REC-SVG-20010904/DTD/svg10.dtd">
<svg version="1.0" xmlns="http://www.w3.org/2000/svg"
 width="128.000000pt" height="128.000000pt" viewBox="0 0 128.000000 128.000000"
 preserveAspectRatio="xMidYMid meet">

<g transform="translate(0.000000,128.000000) scale(0.100000,-0.100000)"
fill="#000000" stroke="none">
<path d="M562 960 c-48 -29 -72 -75 -72 -137 0 -47 4 -58 36 -93 23 -25 51
-44 75 -50 57 -16 109 1 153 50 32 35 36 46 36 93 0 93 -61 157 -150 157 -27
0 -58 -8 -78 -20z"/>
<path d="M304 831 c-70 -43 -66 -138 9 -174 31 -16 42 -17 73 -7 37 12 74 59
74 93 0 31 -29 76 -60 92 -38 20 -58 19 -96 -4z"/>
<path d="M878 834 c-29 -15 -58 -61 -58 -89 0 -63 75 -115 137 -94 36 11 73
58 73 92 0 31 -29 76 -60 92 -36 19 -57 18 -92 -1z"/>
<path d="M443 630 c-33 -17 -68 -39 -77 -49 -42 -47 -61 -176 -31 -218 26 -36
138 -58 305 -58 167 0 279 22 305 58 30 43 11 171 -31 218 -10 11 -46 34 -81
51 l-64 31 -65 -16 c-58 -14 -72 -14 -120 -1 -72 19 -71 19 -141 -16z"/>
<path d="M225 606 c-17 -7 -43 -28 -58 -46 -24 -28 -28 -40 -25 -89 l3 -56 65
-16 65 -16 6 73 c4 43 15 89 27 113 l21 39 -22 6 c-32 8 -48 7 -82 -8z"/>
<path d="M968 613 c-16 -4 -16 -8 4 -46 12 -25 23 -71 27 -113 l6 -71 65 16
65 16 3 56 c3 49 -1 61 -25 89 -40 48 -92 67 -145 53z"/>
</g>
</svg>
