<?xml version="1.0" standalone="no"?>
<!DOCTYPE svg PUBLIC "-//W3C//DTD SVG 20010904//EN"
 "http://www.w3.org/TR/2001/REC-SVG-20010904/DTD/svg10.dtd">
<svg version="1.0" xmlns="http://www.w3.org/2000/svg"
 width="128.000000pt" height="128.000000pt" viewBox="0 0 128.000000 128.000000"
 preserveAspectRatio="xMidYMid meet">

<g transform="translate(0.000000,128.000000) scale(0.100000,-0.100000)"
fill="#000000" stroke="none">
<path d="M911 1209 c-30 -10 -56 -21 -59 -23 -7 -8 118 -166 132 -166 22 0 80
22 95 35 11 11 10 23 -8 76 -35 104 -57 115 -160 78z"/>
<path d="M725 1150 c-27 -9 -49 -23 -47 -29 3 -17 113 -161 121 -161 10 0 115
31 120 36 6 6 -123 174 -134 173 -5 0 -32 -9 -60 -19z"/>
<path d="M555 1094 c-22 -8 -46 -16 -53 -19 -12 -4 7 -32 114 -174 4 -4 107
30 118 39 10 10 -110 170 -127 169 -7 0 -30 -7 -52 -15z"/>
<path d="M367 1034 c-58 -18 -58 -17 18 -118 l56 -75 52 16 c29 8 57 18 64 22
15 8 -101 165 -125 168 -9 1 -39 -5 -65 -13z"/>
<path d="M206 981 c-28 -9 -52 -23 -54 -30 -2 -7 1 -31 7 -54 l12 -42 95 3
c52 2 94 7 92 11 -6 15 -93 130 -98 130 -3 0 -27 -8 -54 -18z"/>
<path d="M194 796 c-3 -7 -4 -40 -2 -72 l3 -59 76 -3 75 -3 27 76 26 75 -100
0 c-75 0 -101 -3 -105 -14z"/>
<path d="M445 798 c-13 -35 -45 -132 -45 -135 0 -2 30 -3 66 -1 l66 3 24 65
c13 36 24 68 24 73 0 13 -130 8 -135 -5z"/>
<path d="M612 742 c-12 -38 -22 -71 -22 -75 0 -4 29 -7 64 -7 l64 0 25 75 26
75 -68 0 -67 0 -22 -68z"/>
<path d="M797 735 l-26 -75 68 0 67 0 22 68 c12 38 22 71 22 75 0 4 -29 7 -64
7 l-64 0 -25 -75z"/>
<path d="M1005 798 c-12 -32 -45 -132 -45 -135 0 -1 38 -3 85 -3 l85 0 0 75 0
75 -60 0 c-39 0 -62 -4 -65 -12z"/>
<path d="M192 349 c3 -260 3 -261 27 -280 22 -18 45 -19 447 -19 411 0 425 1
444 20 19 19 20 33 20 280 l0 260 -470 0 -471 0 3 -261z m501 41 c81 -60 80
-66 -16 -129 -68 -44 -91 -50 -101 -25 -8 21 -8 189 1 197 16 17 53 3 116 -43z"/>
</g>
</svg>
