<?xml version="1.0" standalone="no"?>
<!DOCTYPE svg PUBLIC "-//W3C//DTD SVG 20010904//EN"
 "http://www.w3.org/TR/2001/REC-SVG-20010904/DTD/svg10.dtd">
<svg version="1.0" xmlns="http://www.w3.org/2000/svg"
 width="128.000000pt" height="128.000000pt" viewBox="0 0 128.000000 128.000000"
 preserveAspectRatio="xMidYMid meet">

<g transform="translate(0.000000,128.000000) scale(0.100000,-0.100000)"
fill="#000000" stroke="none">
<path d="M611 1241 c-8 -5 -44 -101 -81 -213 l-66 -203 -224 -5 -225 -5 -9
-27 c-7 -19 -6 -31 4 -42 7 -9 85 -69 174 -133 88 -64 163 -118 165 -120 3 -2
-23 -91 -57 -197 -34 -107 -62 -205 -62 -219 0 -31 23 -51 52 -45 13 2 98 60
191 127 l167 122 168 -122 c92 -67 177 -125 190 -127 29 -6 52 14 52 45 0 14
-28 112 -62 219 -34 106 -60 195 -57 197 2 2 77 56 165 120 89 64 167 124 174
133 10 11 11 23 4 42 l-9 27 -225 5 -224 5 -66 203 c-64 196 -77 222 -110 222
-8 0 -21 -4 -29 -9z"/>
</g>
</svg>
